<svg width="83" height="83" viewBox="0 0 83 83" fill="none" xmlns="http://www.w3.org/2000/svg">
<g filter="url(#filter0_d_231_11281)">
<path d="M26.3781 34.3627C35.3649 34.1198 40.7499 34.3366 41.3059 34.3607C41.3094 34.36 41.313 34.3589 41.3166 34.3588C41.354 34.3575 46.1685 34.2016 55.632 34.4574C56.5858 34.4574 59.1755 35.6016 61.9045 40.1791C65.3159 45.9014 68.7273 54.2654 69.2776 55.806C69.8278 57.3467 70.4881 61.1983 68.6174 63.1791C66.7467 65.1598 63.7754 65.49 60.5842 64.6097C57.3929 63.7294 52.4407 59.1069 50.3498 58.7767C48.8863 58.5457 47.3645 58.7281 43.2473 58.851L41.3166 58.8988L39.3586 58.847C35.1226 58.7061 33.1239 58.452 31.6604 58.683C29.5696 59.0131 24.6173 63.6344 21.426 64.515C18.2347 65.3954 15.2636 65.0651 13.3928 63.0844C11.5221 61.1035 12.1814 57.252 12.7317 55.7113C13.2822 54.17 16.6935 45.8074 20.1047 40.0853C22.8338 35.5074 25.4244 34.3627 26.3781 34.3627ZM28.6613 41.0707C28.0538 41.0708 27.561 41.5638 27.5608 42.1713V45.0326H24.6994C24.0919 45.0327 23.5991 45.5257 23.5988 46.1332V48.1136C23.5988 48.7214 24.0917 49.2142 24.6994 49.2142H27.5608V51.8549C27.5608 52.4626 28.0537 52.9554 28.6613 52.9554H30.6418C31.2496 52.9554 31.7424 52.4626 31.7424 51.8549V49.2142H34.383C34.9908 49.2142 35.4836 48.7214 35.4836 48.1136V46.1332C35.4834 45.5256 34.9906 45.0326 34.383 45.0326H31.7424V42.1713C31.7422 41.5637 31.2494 41.0707 30.6418 41.0707H28.6613ZM52.2112 49.2142C51.6037 49.2142 51.111 49.7065 51.1106 50.3138V51.8549C51.1106 52.4626 51.6034 52.9554 52.2112 52.9554H54.1916C54.7994 52.9554 55.2922 52.4626 55.2922 51.8549V50.3138C55.2917 49.7065 54.7991 49.2142 54.1916 49.2142H52.2112ZM48.2492 45.0326C47.6416 45.0326 47.1489 45.5256 47.1487 46.1332V48.1136C47.1487 48.7214 47.6415 49.2142 48.2492 49.2142H50.01C50.6177 49.2142 51.1106 48.7214 51.1106 48.1136V46.1332C51.1103 45.5257 50.6175 45.0327 50.01 45.0326H48.2492ZM56.3928 45.0326C55.7852 45.0326 55.2925 45.5256 55.2922 46.1332V48.1136C55.2922 48.7214 55.785 49.2142 56.3928 49.2142H57.9328C58.5406 49.2142 59.0334 48.7214 59.0334 48.1136V46.1332C59.0332 45.5256 58.5404 45.0326 57.9328 45.0326H56.3928ZM52.2112 41.0707C51.6036 41.0707 51.1109 41.5638 51.1106 42.1713V43.932C51.1106 44.5398 51.6034 45.0326 52.2112 45.0326H54.1916C54.7994 45.0326 55.2922 44.5398 55.2922 43.932V42.1713C55.2919 41.5637 54.7992 41.0707 54.1916 41.0707H52.2112Z" fill="#1C80D6"/>
</g>
<path d="M31.4275 16.0136C31.6772 16.0137 31.9103 16.139 32.0476 16.3476L39.7546 28.0673C39.8209 28.168 39.9339 28.2284 40.0544 28.2284H41.8933C42.0121 28.2284 42.1236 28.1696 42.1902 28.0712L50.1169 16.3407C50.255 16.1364 50.4856 16.0136 50.7322 16.0136H53.8796C54.4723 16.0139 54.8257 16.6747 54.4968 17.1679L47.4939 27.6718C47.3354 27.9097 47.506 28.2282 47.7917 28.2284H53.9851C54.1006 28.2285 54.206 28.2945 54.2566 28.3984L56.0232 32.0302C56.1207 32.2309 55.9748 32.4646 55.7517 32.4648H26.3201C26.0912 32.4648 25.9456 32.2198 26.0544 32.0185L28.0173 28.3866C28.0702 28.2892 28.1721 28.2285 28.283 28.2284H34.2556C34.5426 28.2284 34.7132 27.9076 34.5525 27.6698L27.4587 17.1718C27.1257 16.6788 27.4791 16.0138 28.074 16.0136H31.4275Z" fill="#1C80D6" stroke="#1C80D6" stroke-width="0.164247"/>
<defs>
<filter id="filter0_d_231_11281" x="10.1544" y="32.2486" width="65.701" height="38.8219" filterUnits="userSpaceOnUse" color-interpolation-filters="sRGB">
<feFlood flood-opacity="0" result="BackgroundImageFix"/>
<feColorMatrix in="SourceAlpha" type="matrix" values="0 0 0 0 0 0 0 0 0 0 0 0 0 0 0 0 0 0 127 0" result="hardAlpha"/>
<feOffset dx="2" dy="2"/>
<feGaussianBlur stdDeviation="2"/>
<feComposite in2="hardAlpha" operator="out"/>
<feColorMatrix type="matrix" values="0 0 0 0 1 0 0 0 0 1 0 0 0 0 1 0 0 0 0.08 0"/>
<feBlend mode="normal" in2="BackgroundImageFix" result="effect1_dropShadow_231_11281"/>
<feBlend mode="normal" in="SourceGraphic" in2="effect1_dropShadow_231_11281" result="shape"/>
</filter>
</defs>
</svg>
