<svg width="16" height="16" viewBox="0 0 16 16" fill="none" xmlns="http://www.w3.org/2000/svg">
<mask id="path-2-outside-1_329_1738" maskUnits="userSpaceOnUse" x="1.36804" y="5.67267" width="13" height="8" fill="black">
<rect fill="white" x="1.36804" y="5.67267" width="13" height="8"/>
<path d="M8.04773 6.69415H8.04968C8.06136 6.69377 8.99935 6.66397 10.8387 6.71368C11.0246 6.71374 11.5289 6.93646 12.0604 7.82794C12.7251 8.94282 13.3897 10.5727 13.4969 10.8729C13.6041 11.1731 13.7334 11.9235 13.369 12.3094C13.0046 12.6953 12.4253 12.7592 11.8036 12.5877C11.1819 12.4162 10.2168 11.5163 9.80945 11.452C9.64658 11.4263 9.48004 11.4267 9.21765 11.4363L8.04968 11.4754L7.33972 11.452C6.73353 11.4251 6.4122 11.3948 6.16785 11.4334C5.76035 11.4983 4.79625 12.3974 4.17468 12.5692C3.55298 12.7407 2.97374 12.6767 2.60925 12.2908C2.24481 11.905 2.37315 11.1545 2.48035 10.8543C2.58755 10.5542 3.25223 8.92427 3.91687 7.80939C4.44853 6.91769 4.95373 6.69513 5.13953 6.69513C6.89106 6.6478 7.94031 6.68949 8.04773 6.69415ZM5.58386 8.00177C5.46561 8.00189 5.3691 8.09835 5.36902 8.21661V8.77325H4.81238C4.69412 8.77338 4.59762 8.86983 4.59753 8.9881V9.37384C4.59753 9.49217 4.69407 9.58856 4.81238 9.58868H5.36902V10.1033C5.36924 10.2215 5.46569 10.3171 5.58386 10.3172H5.9696C6.08788 10.3172 6.18423 10.2216 6.18445 10.1033V9.58868H6.6991C6.8173 9.58844 6.91296 9.4921 6.91296 9.37384V8.9881C6.91288 8.86991 6.81725 8.7735 6.6991 8.77325H6.18445V8.21661C6.18437 8.09827 6.08796 8.00177 5.9696 8.00177H5.58386ZM10.1727 9.58868C10.0544 9.58868 9.95808 9.68431 9.95789 9.80255V10.1033C9.95811 10.2216 10.0545 10.3172 10.1727 10.3172H10.5585C10.6765 10.3169 10.7731 10.2214 10.7733 10.1033V9.80255C10.7731 9.68447 10.6765 9.58894 10.5585 9.58868H10.1727ZM9.40125 8.77325C9.28289 8.77325 9.18648 8.86976 9.1864 8.9881V9.37384C9.1864 9.49225 9.28284 9.58868 9.40125 9.58868H9.74402C9.86213 9.58833 9.95789 9.49203 9.95789 9.37384V8.9881C9.9578 8.86997 9.86208 8.7736 9.74402 8.77325H9.40125ZM10.9872 8.77325C10.8689 8.77336 10.7734 8.86982 10.7733 8.9881V9.37384C10.7733 9.49219 10.8689 9.58858 10.9872 9.58868H11.288C11.406 9.58819 11.5018 9.49195 11.5018 9.37384V8.9881C11.5017 8.87006 11.4059 8.77375 11.288 8.77325H10.9872ZM10.1727 8.00177C10.0544 8.00177 9.95797 8.09827 9.95789 8.21661V8.55939C9.95797 8.67773 10.0544 8.77325 10.1727 8.77325H10.5585C10.6766 8.773 10.7732 8.67757 10.7733 8.55939V8.21661C10.7732 8.09843 10.6766 8.00203 10.5585 8.00177H10.1727Z"/>
</mask>
<path d="M8.04773 6.69415H8.04968C8.06136 6.69377 8.99935 6.66397 10.8387 6.71368C11.0246 6.71374 11.5289 6.93646 12.0604 7.82794C12.7251 8.94282 13.3897 10.5727 13.4969 10.8729C13.6041 11.1731 13.7334 11.9235 13.369 12.3094C13.0046 12.6953 12.4253 12.7592 11.8036 12.5877C11.1819 12.4162 10.2168 11.5163 9.80945 11.452C9.64658 11.4263 9.48004 11.4267 9.21765 11.4363L8.04968 11.4754L7.33972 11.452C6.73353 11.4251 6.4122 11.3948 6.16785 11.4334C5.76035 11.4983 4.79625 12.3974 4.17468 12.5692C3.55298 12.7407 2.97374 12.6767 2.60925 12.2908C2.24481 11.905 2.37315 11.1545 2.48035 10.8543C2.58755 10.5542 3.25223 8.92427 3.91687 7.80939C4.44853 6.91769 4.95373 6.69513 5.13953 6.69513C6.89106 6.6478 7.94031 6.68949 8.04773 6.69415ZM5.58386 8.00177C5.46561 8.00189 5.3691 8.09835 5.36902 8.21661V8.77325H4.81238C4.69412 8.77338 4.59762 8.86983 4.59753 8.9881V9.37384C4.59753 9.49217 4.69407 9.58856 4.81238 9.58868H5.36902V10.1033C5.36924 10.2215 5.46569 10.3171 5.58386 10.3172H5.9696C6.08788 10.3172 6.18423 10.2216 6.18445 10.1033V9.58868H6.6991C6.8173 9.58844 6.91296 9.4921 6.91296 9.37384V8.9881C6.91288 8.86991 6.81725 8.7735 6.6991 8.77325H6.18445V8.21661C6.18437 8.09827 6.08796 8.00177 5.9696 8.00177H5.58386ZM10.1727 9.58868C10.0544 9.58868 9.95808 9.68431 9.95789 9.80255V10.1033C9.95811 10.2216 10.0545 10.3172 10.1727 10.3172H10.5585C10.6765 10.3169 10.7731 10.2214 10.7733 10.1033V9.80255C10.7731 9.68447 10.6765 9.58894 10.5585 9.58868H10.1727ZM9.40125 8.77325C9.28289 8.77325 9.18648 8.86976 9.1864 8.9881V9.37384C9.1864 9.49225 9.28284 9.58868 9.40125 9.58868H9.74402C9.86213 9.58833 9.95789 9.49203 9.95789 9.37384V8.9881C9.9578 8.86997 9.86208 8.7736 9.74402 8.77325H9.40125ZM10.9872 8.77325C10.8689 8.77336 10.7734 8.86982 10.7733 8.9881V9.37384C10.7733 9.49219 10.8689 9.58858 10.9872 9.58868H11.288C11.406 9.58819 11.5018 9.49195 11.5018 9.37384V8.9881C11.5017 8.87006 11.4059 8.77375 11.288 8.77325H10.9872ZM10.1727 8.00177C10.0544 8.00177 9.95797 8.09827 9.95789 8.21661V8.55939C9.95797 8.67773 10.0544 8.77325 10.1727 8.77325H10.5585C10.6766 8.773 10.7732 8.67757 10.7733 8.55939V8.21661C10.7732 8.09843 10.6766 8.00203 10.5585 8.00177H10.1727Z" fill="#0D2C54"/>
<path d="M8.04773 6.69415L8.04587 6.73703H8.04773V6.69415ZM8.04968 6.69415V6.73706L8.05107 6.73701L8.04968 6.69415ZM10.8387 6.71368L10.8376 6.75656L10.8387 6.75656L10.8387 6.71368ZM12.0604 7.82794L12.0973 7.80598L12.0973 7.80598L12.0604 7.82794ZM13.4969 10.8729L13.5373 10.8584L13.5373 10.8584L13.4969 10.8729ZM13.369 12.3094L13.4002 12.3388L13.4002 12.3388L13.369 12.3094ZM11.8036 12.5877L11.7922 12.629L11.7922 12.629L11.8036 12.5877ZM9.80945 11.452L9.81614 11.4096L9.81613 11.4096L9.80945 11.452ZM9.21765 11.4363L9.21908 11.4792L9.21923 11.4792L9.21765 11.4363ZM8.04968 11.4754L8.04826 11.5184L8.05112 11.5183L8.04968 11.4754ZM7.33972 11.452L7.33782 11.4948L7.33831 11.4948L7.33972 11.452ZM6.16785 11.4334L6.16116 11.3911L6.16111 11.3911L6.16785 11.4334ZM4.17468 12.5692L4.18609 12.6105L4.1861 12.6105L4.17468 12.5692ZM2.60925 12.2908L2.57808 12.3203L2.57808 12.3203L2.60925 12.2908ZM2.48035 10.8543L2.43996 10.8399L2.43996 10.8399L2.48035 10.8543ZM3.91687 7.80939L3.88004 7.78743L3.88004 7.78743L3.91687 7.80939ZM5.13953 6.69513L5.13953 6.73803L5.14068 6.73799L5.13953 6.69513ZM5.58386 8.00177L5.58386 7.95889L5.58382 7.95889L5.58386 8.00177ZM5.36902 8.21661L5.32614 8.21658V8.21661H5.36902ZM5.36902 8.77325V8.81613H5.4119V8.77325H5.36902ZM4.81238 8.77325L4.81238 8.73037L4.81233 8.73037L4.81238 8.77325ZM4.59753 8.9881L4.55465 8.98807V8.9881H4.59753ZM4.81238 9.58868L4.81233 9.63156H4.81238V9.58868ZM5.36902 9.58868H5.4119V9.5458H5.36902V9.58868ZM5.36902 10.1033L5.32614 10.1033L5.32614 10.1034L5.36902 10.1033ZM5.58386 10.3172L5.58382 10.3601H5.58386V10.3172ZM6.18445 10.1033L6.22733 10.1034V10.1033H6.18445ZM6.18445 9.58868V9.5458H6.14157V9.58868H6.18445ZM6.6991 9.58868L6.6991 9.63156L6.69919 9.63156L6.6991 9.58868ZM6.91296 8.9881L6.95584 8.9881L6.95584 8.98807L6.91296 8.9881ZM6.6991 8.77325L6.69919 8.73037H6.6991V8.77325ZM6.18445 8.77325H6.14157V8.81613H6.18445V8.77325ZM6.18445 8.21661L6.22733 8.21661L6.22733 8.21658L6.18445 8.21661ZM9.95789 9.80255L9.91501 9.80248V9.80255H9.95789ZM9.95789 10.1033H9.91501L9.91501 10.1034L9.95789 10.1033ZM10.5585 10.3172L10.5585 10.3601L10.5586 10.3601L10.5585 10.3172ZM10.7733 10.1033L10.8162 10.1034V10.1033H10.7733ZM10.7733 9.80255L10.8162 9.80255L10.8162 9.80248L10.7733 9.80255ZM10.5585 9.58868L10.5586 9.5458H10.5585V9.58868ZM9.1864 8.9881L9.14352 8.98807V8.9881H9.1864ZM9.74402 9.58868L9.74402 9.63156L9.74415 9.63156L9.74402 9.58868ZM9.95789 8.9881L10.0008 8.9881L10.0008 8.98807L9.95789 8.9881ZM9.74402 8.77325L9.74415 8.73037H9.74402V8.77325ZM10.9872 8.77325V8.73037L10.9871 8.73037L10.9872 8.77325ZM10.7733 8.9881L10.7304 8.98807V8.9881H10.7733ZM10.9872 9.58868L10.9871 9.63156H10.9872V9.58868ZM11.288 9.58868V9.63156L11.2881 9.63156L11.288 9.58868ZM11.5018 8.9881L11.5447 8.9881L11.5447 8.98807L11.5018 8.9881ZM11.288 8.77325L11.2881 8.73037H11.288V8.77325ZM9.95789 8.21661L9.91501 8.21658V8.21661H9.95789ZM9.95789 8.55939L9.91501 8.55939L9.91501 8.55942L9.95789 8.55939ZM10.5585 8.77325V8.81613L10.5586 8.81613L10.5585 8.77325ZM10.7733 8.55939L10.8162 8.55942V8.55939H10.7733ZM10.7733 8.21661H10.8162L10.8162 8.21658L10.7733 8.21661ZM10.5585 8.00177L10.5586 7.95889H10.5585V8.00177ZM8.04773 6.69415V6.73703H8.04968V6.69415V6.65127H8.04773V6.69415ZM8.04968 6.69415L8.05107 6.73701C8.06191 6.73666 8.99905 6.70686 10.8376 6.75655L10.8387 6.71368L10.8399 6.67082C8.99966 6.62108 8.06082 6.65089 8.04829 6.6513L8.04968 6.69415ZM10.8387 6.71368L10.8387 6.75656C10.9182 6.75659 11.0816 6.80614 11.2937 6.97043C11.5044 7.13367 11.76 7.40784 12.0236 7.8499L12.0604 7.82794L12.0973 7.80598C11.8293 7.35656 11.567 7.07364 11.3462 6.90263C11.1268 6.73268 10.9451 6.67084 10.8388 6.6708L10.8387 6.71368ZM12.0604 7.82794L12.0236 7.8499C12.6863 8.96159 13.3499 10.5887 13.4566 10.8873L13.4969 10.8729L13.5373 10.8584C13.4296 10.5567 12.7638 8.92406 12.0973 7.80598L12.0604 7.82794ZM13.4969 10.8729L13.4566 10.8873C13.5087 11.0332 13.5668 11.291 13.5669 11.559C13.5671 11.828 13.5089 12.0987 13.3378 12.2799L13.369 12.3094L13.4002 12.3388C13.5935 12.1341 13.6529 11.8367 13.6527 11.559C13.6525 11.2803 13.5924 11.0127 13.5373 10.8584L13.4969 10.8729ZM13.369 12.3094L13.3378 12.2799C12.989 12.6493 12.4294 12.7159 11.815 12.5464L11.8036 12.5877L11.7922 12.629C12.4212 12.8025 13.0201 12.7413 13.4002 12.3388L13.369 12.3094ZM11.8036 12.5877L11.815 12.5464C11.6652 12.505 11.4922 12.419 11.3089 12.3101C11.126 12.2014 10.9355 12.0716 10.7504 11.9443C10.566 11.8174 10.3865 11.6927 10.2278 11.5959C10.0706 11.5 9.92736 11.4272 9.81614 11.4096L9.80945 11.452L9.80275 11.4943C9.89524 11.5089 10.0253 11.5728 10.1831 11.6691C10.3394 11.7644 10.5164 11.8874 10.7018 12.015C10.8867 12.1422 11.0794 12.2735 11.2651 12.3838C11.4503 12.4939 11.6312 12.5846 11.7922 12.629L11.8036 12.5877ZM9.80945 11.452L9.81613 11.4096C9.64874 11.3832 9.47848 11.3838 9.21607 11.3935L9.21765 11.4363L9.21923 11.4792C9.48161 11.4695 9.64442 11.4693 9.80276 11.4943L9.80945 11.452ZM9.21765 11.4363L9.21622 11.3935L8.04825 11.4325L8.04968 11.4754L8.05112 11.5183L9.21908 11.4792L9.21765 11.4363ZM8.04968 11.4754L8.0511 11.4325L7.34114 11.4091L7.33972 11.452L7.33831 11.4948L8.04827 11.5183L8.04968 11.4754ZM7.33972 11.452L7.34162 11.4091C7.03973 11.3957 6.8063 11.3814 6.61949 11.3753C6.43233 11.3692 6.28754 11.3711 6.16116 11.3911L6.16785 11.4334L6.17453 11.4758C6.2925 11.4571 6.43055 11.4549 6.61669 11.461C6.80319 11.4671 7.03352 11.4813 7.33782 11.4948L7.33972 11.452ZM6.16785 11.4334L6.16111 11.3911C6.04989 11.4088 5.90665 11.4816 5.74956 11.5775C5.59091 11.6743 5.41159 11.799 5.22723 11.9259C5.04231 12.0531 4.85189 12.1829 4.66912 12.2915C4.48594 12.4004 4.31306 12.4864 4.16326 12.5278L4.17468 12.5692L4.1861 12.6105C4.34708 12.566 4.52781 12.4752 4.71294 12.3652C4.89849 12.2549 5.09111 12.1236 5.27584 11.9965C5.46114 11.869 5.6381 11.746 5.79425 11.6507C5.95196 11.5544 6.08205 11.4905 6.17459 11.4758L6.16785 11.4334ZM4.17468 12.5692L4.16328 12.5278C3.54886 12.6973 2.98929 12.6307 2.64042 12.2614L2.60925 12.2908L2.57808 12.3203C2.95819 12.7226 3.5571 12.784 4.18609 12.6105L4.17468 12.5692ZM2.60925 12.2908L2.64043 12.2614C2.46928 12.0802 2.41089 11.8095 2.41082 11.5404C2.41075 11.2724 2.46864 11.0146 2.52073 10.8687L2.48035 10.8543L2.43996 10.8399C2.38486 10.9942 2.32499 11.2618 2.32506 11.5405C2.32513 11.8182 2.38479 12.1156 2.57808 12.3203L2.60925 12.2908ZM2.48035 10.8543L2.52073 10.8687C2.62737 10.5701 3.29097 8.94303 3.9537 7.83134L3.91687 7.80939L3.88004 7.78743C3.2135 8.9055 2.54772 10.5382 2.43996 10.8399L2.48035 10.8543ZM3.91687 7.80939L3.9537 7.83135C4.21733 7.38918 4.47318 7.115 4.68414 6.95178C4.89646 6.78751 5.06006 6.73801 5.13953 6.73801L5.13953 6.69513L5.13953 6.65225C5.0332 6.65225 4.8513 6.71403 4.63166 6.88396C4.41065 7.05494 4.14807 7.33789 3.88004 7.78743L3.91687 7.80939ZM5.13953 6.69513L5.14068 6.73799C6.8911 6.6907 7.93933 6.73237 8.04587 6.73699L8.04773 6.69415L8.04959 6.65131C7.94129 6.64661 6.89103 6.60491 5.13837 6.65227L5.13953 6.69513ZM5.58386 8.00177L5.58382 7.95889C5.44193 7.95904 5.32624 8.07465 5.32614 8.21658L5.36902 8.21661L5.4119 8.21664C5.41196 8.12205 5.48928 8.04475 5.58391 8.04465L5.58386 8.00177ZM5.36902 8.21661H5.32614V8.77325H5.36902H5.4119V8.21661H5.36902ZM5.36902 8.77325V8.73037H4.81238V8.77325V8.81613H5.36902V8.77325ZM4.81238 8.77325L4.81233 8.73037C4.67045 8.73052 4.55475 8.84613 4.55465 8.98807L4.59753 8.9881L4.64041 8.98813C4.64048 8.89354 4.7178 8.81623 4.81242 8.81613L4.81238 8.77325ZM4.59753 8.9881H4.55465V9.37384H4.59753H4.64041V8.9881H4.59753ZM4.59753 9.37384H4.55465C4.55465 9.5159 4.67042 9.63142 4.81233 9.63156L4.81238 9.58868L4.81242 9.5458C4.71772 9.54571 4.64041 9.46845 4.64041 9.37384H4.59753ZM4.81238 9.58868V9.63156H5.36902V9.58868V9.5458H4.81238V9.58868ZM5.36902 9.58868H5.32614V10.1033H5.36902H5.4119V9.58868H5.36902ZM5.36902 10.1033L5.32614 10.1034C5.32641 10.2454 5.44222 10.3599 5.58382 10.3601L5.58386 10.3172L5.58391 10.2743C5.48917 10.2742 5.41208 10.1976 5.4119 10.1033L5.36902 10.1033ZM5.58386 10.3172V10.3601H5.9696V10.3172V10.2743H5.58386V10.3172ZM5.9696 10.3172V10.3601C6.11138 10.3601 6.22706 10.2454 6.22733 10.1034L6.18445 10.1033L6.14157 10.1033C6.14139 10.1977 6.06437 10.2743 5.9696 10.2743V10.3172ZM6.18445 10.1033H6.22733V9.58868H6.18445H6.14157V10.1033H6.18445ZM6.18445 9.58868V9.63156H6.6991V9.58868V9.5458H6.18445V9.58868ZM6.6991 9.58868L6.69919 9.63156C6.84116 9.63127 6.95584 9.51561 6.95584 9.37384H6.91296H6.87008C6.87008 9.46858 6.79343 9.54561 6.69901 9.5458L6.6991 9.58868ZM6.91296 9.37384H6.95584V8.9881H6.91296H6.87008V9.37384H6.91296ZM6.91296 8.9881L6.95584 8.98807C6.95575 8.84642 6.84114 8.73067 6.69919 8.73037L6.6991 8.77325L6.69901 8.81613C6.79335 8.81633 6.87002 8.8934 6.87008 8.98813L6.91296 8.9881ZM6.6991 8.77325V8.73037H6.18445V8.77325V8.81613H6.6991V8.77325ZM6.18445 8.77325H6.22733V8.21661H6.18445H6.14157V8.77325H6.18445ZM6.18445 8.21661L6.22733 8.21658C6.22723 8.07461 6.11168 7.95889 5.9696 7.95889V8.00177V8.04465C6.06425 8.04465 6.1415 8.12193 6.14157 8.21664L6.18445 8.21661ZM5.9696 8.00177V7.95889H5.58386V8.00177V8.04465H5.9696V8.00177ZM10.1727 9.58868V9.5458C10.0309 9.5458 9.91524 9.66043 9.91501 9.80248L9.95789 9.80255L10.0008 9.80262C10.0009 9.70819 10.0779 9.63156 10.1727 9.63156V9.58868ZM9.95789 9.80255H9.91501V10.1033H9.95789H10.0008V9.80255H9.95789ZM9.95789 10.1033L9.91501 10.1034C9.91527 10.2454 10.0309 10.3601 10.1727 10.3601V10.3172V10.2743C10.078 10.2743 10.0009 10.1977 10.0008 10.1033L9.95789 10.1033ZM10.1727 10.3172V10.3601H10.5585V10.3172V10.2743H10.1727V10.3172ZM10.5585 10.3172L10.5586 10.3601C10.7 10.3598 10.8159 10.2454 10.8162 10.1034L10.7733 10.1033L10.7304 10.1033C10.7303 10.1974 10.6531 10.2741 10.5584 10.2743L10.5585 10.3172ZM10.7733 10.1033H10.8162V9.80255H10.7733H10.7304V10.1033H10.7733ZM10.7733 9.80255L10.8162 9.80248C10.816 9.66049 10.7 9.54611 10.5586 9.5458L10.5585 9.58868L10.5584 9.63156C10.6531 9.63177 10.7303 9.70844 10.7304 9.80262L10.7733 9.80255ZM10.5585 9.58868V9.5458H10.1727V9.58868V9.63156H10.5585V9.58868ZM9.40125 8.77325V8.73037C9.25917 8.73037 9.14362 8.8461 9.14352 8.98807L9.1864 8.9881L9.22928 8.98813C9.22935 8.89342 9.3066 8.81613 9.40125 8.81613V8.77325ZM9.1864 8.9881H9.14352V9.37384H9.1864H9.22928V8.9881H9.1864ZM9.1864 9.37384H9.14352C9.14352 9.51593 9.25915 9.63156 9.40125 9.63156V9.58868V9.5458C9.30652 9.5458 9.22928 9.46857 9.22928 9.37384H9.1864ZM9.40125 9.58868V9.63156H9.74402V9.58868V9.5458H9.40125V9.58868ZM9.74402 9.58868L9.74415 9.63156C9.88597 9.63114 10.0008 9.51559 10.0008 9.37384H9.95789H9.91501C9.91501 9.46848 9.83829 9.54552 9.74389 9.5458L9.74402 9.58868ZM9.95789 9.37384H10.0008V8.9881H9.95789H9.91501V9.37384H9.95789ZM9.95789 8.9881L10.0008 8.98807C10.0007 8.84644 9.88595 8.7308 9.74415 8.73037L9.74402 8.77325L9.74389 8.81613C9.83821 8.81641 9.91494 8.8935 9.91501 8.98813L9.95789 8.9881ZM9.74402 8.77325V8.73037H9.40125V8.77325V8.81613H9.74402V8.77325ZM10.9872 8.77325L10.9871 8.73037C10.845 8.7305 10.7305 8.84638 10.7304 8.98807L10.7733 8.9881L10.8162 8.98813C10.8163 8.89326 10.8928 8.81622 10.9872 8.81613L10.9872 8.77325ZM10.7733 8.9881H10.7304V9.37384H10.7733H10.8162V8.9881H10.7733ZM10.7733 9.37384H10.7304C10.7304 9.51565 10.845 9.63144 10.9871 9.63156L10.9872 9.58868L10.9872 9.5458C10.8928 9.54572 10.8162 9.46872 10.8162 9.37384H10.7733ZM10.9872 9.58868V9.63156H11.288V9.58868V9.5458H10.9872V9.58868ZM11.288 9.58868L11.2881 9.63156C11.4298 9.63097 11.5447 9.51555 11.5447 9.37384H11.5018H11.459C11.459 9.46834 11.3822 9.54541 11.2878 9.5458L11.288 9.58868ZM11.5018 9.37384H11.5447V8.9881H11.5018H11.459V9.37384H11.5018ZM11.5018 8.9881L11.5447 8.98807C11.5446 8.84648 11.4297 8.73096 11.2881 8.73037L11.288 8.77325L11.2878 8.81613C11.3821 8.81653 11.4589 8.89364 11.459 8.98813L11.5018 8.9881ZM11.288 8.77325V8.73037H10.9872V8.77325V8.81613H11.288V8.77325ZM10.1727 8.00177V7.95889C10.0307 7.95889 9.9151 8.07461 9.91501 8.21658L9.95789 8.21661L10.0008 8.21664C10.0008 8.12193 10.0781 8.04465 10.1727 8.04465V8.00177ZM9.95789 8.21661H9.91501V8.55939H9.95789H10.0008V8.21661H9.95789ZM9.95789 8.55939L9.91501 8.55942C9.9151 8.70164 10.0309 8.81613 10.1727 8.81613V8.77325V8.73037C10.0778 8.73037 10.0008 8.65382 10.0008 8.55936L9.95789 8.55939ZM10.1727 8.77325V8.81613H10.5585V8.77325V8.73037H10.1727V8.77325ZM10.5585 8.77325L10.5586 8.81613C10.7 8.81583 10.8161 8.70157 10.8162 8.55942L10.7733 8.55939L10.7304 8.55936C10.7304 8.65356 10.6532 8.73017 10.5584 8.73037L10.5585 8.77325ZM10.7733 8.55939H10.8162V8.21661H10.7733H10.7304V8.55939H10.7733ZM10.7733 8.21661L10.8162 8.21658C10.8161 8.07468 10.7003 7.9592 10.5586 7.95889L10.5585 8.00177L10.5584 8.04465C10.653 8.04486 10.7304 8.12219 10.7304 8.21664L10.7733 8.21661ZM10.5585 8.00177V7.95889H10.1727V8.00177V8.04465H10.5585V8.00177Z" fill="#060606" mask="url(#path-2-outside-1_329_1738)"/>
<path d="M6.12341 3.12036C6.17178 3.1205 6.21683 3.14448 6.24353 3.18481L7.74548 5.46802C7.75838 5.48763 7.7806 5.50024 7.80408 5.50024H8.16248C8.18553 5.50014 8.20718 5.48811 8.22009 5.46899L9.76404 3.18384C9.79094 3.14403 9.83611 3.12036 9.88416 3.12036H10.4974C10.6129 3.12049 10.6816 3.2489 10.6176 3.34497L9.2533 5.39185C9.22283 5.43806 9.25556 5.49995 9.31091 5.50024H10.5179C10.5403 5.50028 10.5608 5.51249 10.5707 5.53247L10.9154 6.24048C10.9343 6.27955 10.9051 6.32544 10.8617 6.32544H5.1283C5.08373 6.32544 5.0554 6.27774 5.07654 6.23853L5.45837 5.53052C5.46862 5.5116 5.48863 5.50034 5.51013 5.50024H6.67419C6.73005 5.50018 6.7631 5.43717 6.73181 5.39087L5.34998 3.34595C5.28507 3.24989 5.35416 3.12036 5.47009 3.12036H6.12341Z" fill="#1C80D6" stroke="#1C80D6" stroke-width="0.032"/>
</svg>
